<svg width="1590" height="6611" fill="none" xmlns="http://www.w3.org/2000/svg"><g clip-path="url(#a)"><path fill="#0F0004" d="M0 0h1590v6611H0z"/><g filter="url(#b)"><path d="M279 4189.5C279 4347.73 151.401 4476-6 4476s-285-128.27-285-286.5S-163.401 3903-6 3903s285 128.27 285 286.5z" fill="#5F005B" fill-opacity=".67"/></g><g filter="url(#c)"><path d="M372 6779.5c0 158.23-127.599 286.5-285 286.5s-285-128.27-285-286.5S-70.401 6493 87 6493s285 128.27 285 286.5z" fill="#0400BB" fill-opacity=".67"/></g><g filter="url(#d)"><path d="M1718 5033c0 167.89-136.55 304-305 304s-305-136.11-305-304 136.55-304 305-304 305 136.11 305 304z" fill="#0400BB" fill-opacity=".67"/></g><g filter="url(#e)"><path d="M2424 3943c0 167.89-136.55 304-305 304s-305-136.11-305-304 136.55-304 305-304 305 136.11 305 304z" fill="#0400BB" fill-opacity=".67"/></g><g filter="url(#f)"><path d="M1924 3112c0 167.89-136.55 304-305 304s-305-136.11-305-304 136.55-304 305-304 305 136.11 305 304z" fill="#0400BB" fill-opacity=".56"/></g><g filter="url(#g)"><path d="M279 2292c0 167.89-136.553 304-305 304s-305-136.11-305-304 136.553-304 305-304 305 136.11 305 304z" fill="#7F00BB" fill-opacity=".51"/></g><g filter="url(#h)"><path d="M1955 1563c0 167.89-136.55 304-305 304s-305-136.11-305-304 136.55-304 305-304 305 136.11 305 304z" fill="#B700BB" fill-opacity=".51"/></g><g filter="url(#i)"><ellipse cx="-18.5" cy="5528.5" rx="350.5" ry="343.5" fill="#5F005B" fill-opacity=".67"/></g><g filter="url(#j)"><path d="M326 974c0 167.89-136.553 304-305 304s-305-136.11-305-304c0-167.895 136.553-304 305-304s305 136.105 305 304z" fill="#0400BB" fill-opacity=".54"/></g><g filter="url(#k)"><ellipse cx="1672" cy="701.5" rx="285" ry="286.5" fill="#0400BB" fill-opacity=".67"/></g><g filter="url(#l)"><ellipse cx="1590" cy="500.5" rx="285" ry="286.5" fill="#5F005B" fill-opacity=".67"/></g><g filter="url(#m)"><path d="M2200 6647c0 167.89-136.55 304-305 304s-305-136.11-305-304 136.55-304 305-304 305 136.11 305 304z" fill="#2500BB" fill-opacity=".14"/></g></g><defs><filter id="b" x="-791" y="3403" width="1570" height="1573" filterUnits="userSpaceOnUse" color-interpolation-filters="sRGB"><feFlood flood-opacity="0" result="BackgroundImageFix"/><feBlend in="SourceGraphic" in2="BackgroundImageFix" result="shape"/><feGaussianBlur stdDeviation="250" result="effect1_foregroundBlur_1_2"/></filter><filter id="c" x="-698" y="5993" width="1570" height="1573" filterUnits="userSpaceOnUse" color-interpolation-filters="sRGB"><feFlood flood-opacity="0" result="BackgroundImageFix"/><feBlend in="SourceGraphic" in2="BackgroundImageFix" result="shape"/><feGaussianBlur stdDeviation="250" result="effect1_foregroundBlur_1_2"/></filter><filter id="d" x="608" y="4229" width="1610" height="1608" filterUnits="userSpaceOnUse" color-interpolation-filters="sRGB"><feFlood flood-opacity="0" result="BackgroundImageFix"/><feBlend in="SourceGraphic" in2="BackgroundImageFix" result="shape"/><feGaussianBlur stdDeviation="250" result="effect1_foregroundBlur_1_2"/></filter><filter id="e" x="1314" y="3139" width="1610" height="1608" filterUnits="userSpaceOnUse" color-interpolation-filters="sRGB"><feFlood flood-opacity="0" result="BackgroundImageFix"/><feBlend in="SourceGraphic" in2="BackgroundImageFix" result="shape"/><feGaussianBlur stdDeviation="250" result="effect1_foregroundBlur_1_2"/></filter><filter id="f" x="814" y="2308" width="1610" height="1608" filterUnits="userSpaceOnUse" color-interpolation-filters="sRGB"><feFlood flood-opacity="0" result="BackgroundImageFix"/><feBlend in="SourceGraphic" in2="BackgroundImageFix" result="shape"/><feGaussianBlur stdDeviation="250" result="effect1_foregroundBlur_1_2"/></filter><filter id="g" x="-831" y="1488" width="1610" height="1608" filterUnits="userSpaceOnUse" color-interpolation-filters="sRGB"><feFlood flood-opacity="0" result="BackgroundImageFix"/><feBlend in="SourceGraphic" in2="BackgroundImageFix" result="shape"/><feGaussianBlur stdDeviation="250" result="effect1_foregroundBlur_1_2"/></filter><filter id="h" x="845" y="759" width="1610" height="1608" filterUnits="userSpaceOnUse" color-interpolation-filters="sRGB"><feFlood flood-opacity="0" result="BackgroundImageFix"/><feBlend in="SourceGraphic" in2="BackgroundImageFix" result="shape"/><feGaussianBlur stdDeviation="250" result="effect1_foregroundBlur_1_2"/></filter><filter id="i" x="-869" y="4685" width="1701" height="1687" filterUnits="userSpaceOnUse" color-interpolation-filters="sRGB"><feFlood flood-opacity="0" result="BackgroundImageFix"/><feBlend in="SourceGraphic" in2="BackgroundImageFix" result="shape"/><feGaussianBlur stdDeviation="250" result="effect1_foregroundBlur_1_2"/></filter><filter id="j" x="-784" y="170" width="1610" height="1608" filterUnits="userSpaceOnUse" color-interpolation-filters="sRGB"><feFlood flood-opacity="0" result="BackgroundImageFix"/><feBlend in="SourceGraphic" in2="BackgroundImageFix" result="shape"/><feGaussianBlur stdDeviation="250" result="effect1_foregroundBlur_1_2"/></filter><filter id="k" x="887" y="-85" width="1570" height="1573" filterUnits="userSpaceOnUse" color-interpolation-filters="sRGB"><feFlood flood-opacity="0" result="BackgroundImageFix"/><feBlend in="SourceGraphic" in2="BackgroundImageFix" result="shape"/><feGaussianBlur stdDeviation="250" result="effect1_foregroundBlur_1_2"/></filter><filter id="l" x="805" y="-286" width="1570" height="1573" filterUnits="userSpaceOnUse" color-interpolation-filters="sRGB"><feFlood flood-opacity="0" result="BackgroundImageFix"/><feBlend in="SourceGraphic" in2="BackgroundImageFix" result="shape"/><feGaussianBlur stdDeviation="250" result="effect1_foregroundBlur_1_2"/></filter><filter id="m" x="1090" y="5843" width="1610" height="1608" filterUnits="userSpaceOnUse" color-interpolation-filters="sRGB"><feFlood flood-opacity="0" result="BackgroundImageFix"/><feBlend in="SourceGraphic" in2="BackgroundImageFix" result="shape"/><feGaussianBlur stdDeviation="250" result="effect1_foregroundBlur_1_2"/></filter><clipPath id="a"><path fill="#fff" d="M0 0h1590v6611H0z"/></clipPath></defs></svg>