<svg width="25" height="26" viewBox="0 0 25 26" fill="none" xmlns="http://www.w3.org/2000/svg">
<g id="mdi:instagram">
<path id="Vector" d="M8.12504 2.5835H16.875C20.2084 2.5835 22.9167 5.29183 22.9167 8.62516V17.3752C22.9167 18.9775 22.2802 20.5142 21.1471 21.6473C20.0141 22.7803 18.4774 23.4168 16.875 23.4168H8.12504C4.79171 23.4168 2.08337 20.7085 2.08337 17.3752V8.62516C2.08337 7.02281 2.71991 5.48609 3.85294 4.35306C4.98597 3.22003 6.52269 2.5835 8.12504 2.5835ZM7.91671 4.66683C6.92215 4.66683 5.96832 5.06192 5.26506 5.76518C4.5618 6.46844 4.16671 7.42227 4.16671 8.41683V17.5835C4.16671 19.6564 5.84379 21.3335 7.91671 21.3335H17.0834C18.0779 21.3335 19.0318 20.9384 19.735 20.2351C20.4383 19.5319 20.8334 18.5781 20.8334 17.5835V8.41683C20.8334 6.34391 19.1563 4.66683 17.0834 4.66683H7.91671ZM17.9688 6.22933C18.3141 6.22933 18.6453 6.36651 18.8895 6.6107C19.1337 6.85489 19.2709 7.18608 19.2709 7.53141C19.2709 7.87675 19.1337 8.20794 18.8895 8.45213C18.6453 8.69631 18.3141 8.8335 17.9688 8.8335C17.6235 8.8335 17.2923 8.69631 17.0481 8.45213C16.8039 8.20794 16.6667 7.87675 16.6667 7.53141C16.6667 7.18608 16.8039 6.85489 17.0481 6.6107C17.2923 6.36651 17.6235 6.22933 17.9688 6.22933ZM12.5 7.79183C13.8814 7.79183 15.2061 8.34056 16.1829 9.31732C17.1596 10.2941 17.7084 11.6188 17.7084 13.0002C17.7084 14.3815 17.1596 15.7063 16.1829 16.683C15.2061 17.6598 13.8814 18.2085 12.5 18.2085C11.1187 18.2085 9.79395 17.6598 8.81719 16.683C7.84044 15.7063 7.29171 14.3815 7.29171 13.0002C7.29171 11.6188 7.84044 10.2941 8.81719 9.31732C9.79395 8.34056 11.1187 7.79183 12.5 7.79183ZM12.5 9.87516C11.6712 9.87516 10.8764 10.2044 10.2903 10.7905C9.70428 11.3765 9.37504 12.1714 9.37504 13.0002C9.37504 13.829 9.70428 14.6238 10.2903 15.2099C10.8764 15.7959 11.6712 16.1252 12.5 16.1252C13.3288 16.1252 14.1237 15.7959 14.7098 15.2099C15.2958 14.6238 15.625 13.829 15.625 13.0002C15.625 12.1714 15.2958 11.3765 14.7098 10.7905C14.1237 10.2044 13.3288 9.87516 12.5 9.87516Z" fill="white"/>
</g>
</svg>
