<svg width="25" height="26" viewBox="0 0 25 26" fill="none" xmlns="http://www.w3.org/2000/svg">
<g id="mingcute:phone-line" clip-path="url(#clip0_114_415)">
<g id="Group">
<path id="Vector" fill-rule="evenodd" clip-rule="evenodd" d="M8.51246 16.9886C12.5177 20.9938 16.2291 21.4324 17.3187 21.473C18.6354 21.5209 19.9791 20.4459 20.5604 19.3449C19.6333 18.2574 18.426 17.4136 17.1031 16.499C16.3239 17.2782 15.3635 18.7261 14.0823 18.2074C13.3541 17.9147 11.5562 17.0865 9.98538 15.5147C8.4135 13.9438 7.58642 12.1459 7.29163 11.4188C6.77288 10.1365 8.22496 9.17299 9.00517 8.39278C8.09058 7.04903 7.26142 5.81049 6.176 4.93028C5.05933 5.51361 3.97808 6.84695 4.02704 8.18132C4.06767 9.27091 4.50621 12.9824 8.51246 16.9886ZM17.2416 23.5542C15.7416 23.499 11.4906 22.9126 7.0385 18.4605C2.58746 14.0094 2.001 9.75945 1.94475 8.25841C1.86142 5.97091 3.6135 3.74903 5.63746 2.88132C5.88118 2.77608 6.14809 2.73601 6.41197 2.76505C6.67585 2.79408 6.92766 2.89123 7.14267 3.04695C8.81767 4.26882 9.97288 6.11986 10.9656 7.56986C11.1721 7.87138 11.2667 8.2356 11.233 8.59949C11.1994 8.96339 11.0395 9.30407 10.7812 9.56257L9.36871 10.9761C9.69683 11.7001 10.3645 12.948 11.4583 14.0417C12.552 15.1355 13.8 15.8032 14.525 16.1313L15.9364 14.7188C16.1959 14.46 16.538 14.3003 16.9031 14.2678C17.2682 14.2352 17.6331 14.3318 17.9343 14.5407C19.4135 15.5657 21.151 16.7042 22.4177 18.3261C22.586 18.5427 22.6931 18.8005 22.7278 19.0726C22.7624 19.3447 22.7233 19.6212 22.6145 19.873C21.7427 21.9074 19.5364 23.6386 17.2416 23.5542Z" fill="white"/>
</g>
</g>
<defs>
<clipPath id="clip0_114_415">
<rect width="25" height="25" fill="white" transform="translate(0 0.5)"/>
</clipPath>
</defs>
</svg>
